<svg width="622" height="111" viewBox="0 0 622 111" fill="none" xmlns="http://www.w3.org/2000/svg">
<path d="M57.3498 9.78984C50.8798 3.32984 43.0298 0.0898438 33.7898 0.0898438H6.07977C2.37977 0.0898438 0.529785 1.93985 0.529785 5.63985V105.41C0.529785 109.11 2.37977 110.95 6.07977 110.95C9.77977 110.95 11.6198 109.11 11.6198 105.41V66.6098H33.7898C43.6498 66.6098 51.6498 63.5298 57.8098 57.3698C63.9698 51.2098 67.0498 43.2099 67.0498 33.3499C67.0498 24.1099 63.8198 16.2598 57.3498 9.78984ZM49.5398 49.0999C45.2598 53.3799 40.0098 55.5199 33.7898 55.5199H11.6198V11.1798H33.7898C40.0098 11.1798 45.2598 13.3198 49.5398 17.6098C53.8198 21.8898 55.9598 27.1399 55.9598 33.3499C55.9598 39.5599 53.8198 44.8199 49.5398 49.0999Z" fill="#E6E6E6"/>
<path d="M144.65 55.0999V105.41C144.65 109.11 142.8 110.95 139.11 110.95C135.42 110.95 133.56 109.11 133.56 105.41V55.5199C133.56 52.3899 132.5 49.7599 130.37 47.6299C128.25 45.4999 125.61 44.4398 122.48 44.4398H100.31V105.41C100.31 109.11 98.4597 110.95 94.7597 110.95C91.0597 110.95 89.2197 109.11 89.2197 105.41V5.63985C89.2197 1.93985 91.0697 0.0898438 94.7597 0.0898438C98.4497 0.0898438 100.31 1.93985 100.31 5.63985V33.3499H122.48C128.58 33.3499 133.8 35.4799 138.14 39.7399C142.48 43.9899 144.65 49.1099 144.65 55.0999Z" fill="#E6E6E6"/>
<path d="M214.23 41.3696C208.88 36.0296 202.32 33.3496 194.54 33.3496C186.76 33.3496 180.33 36.0496 174.93 41.4596C169.52 46.8596 166.82 53.3996 166.82 61.0696V83.2396C166.82 90.9096 169.52 97.4496 174.93 102.85C180.33 108.25 186.87 110.95 194.54 110.95C202.21 110.95 208.74 108.25 214.15 102.85C219.55 97.4496 222.25 90.9096 222.25 83.2396V61.0696C222.25 53.2896 219.58 46.7196 214.23 41.3696ZM211.17 83.2396C211.17 87.8296 209.54 91.7496 206.3 94.9996C203.05 98.2396 199.13 99.8696 194.54 99.8696C189.95 99.8696 185.96 98.2596 182.74 95.0396C179.52 91.8196 177.91 87.8896 177.91 83.2396V61.0696C177.91 56.4796 179.53 52.5596 182.78 49.3096C186.03 46.0596 189.95 44.4396 194.54 44.4396C199.13 44.4396 203.05 46.0596 206.3 49.3096C209.54 52.5596 211.17 56.4796 211.17 61.0696V83.2396Z" fill="#E6E6E6"/>
<path d="M299.85 55.5196V105.41C299.85 109.11 298.01 110.95 294.31 110.95C290.61 110.95 288.77 109.11 288.77 105.41V55.5196C288.77 52.3896 287.7 49.7596 285.58 47.6296C283.45 45.4996 280.82 44.4396 277.68 44.4396H255.51V105.41C255.51 109.11 253.66 110.95 249.97 110.95C246.28 110.95 244.42 109.11 244.42 105.41V38.8996C244.42 35.1996 246.27 33.3496 249.97 33.3496H277.68C283.9 33.3496 289.15 35.4896 293.43 39.7796C297.71 44.0596 299.85 49.3096 299.85 55.5196Z" fill="#E6E6E6"/>
<path d="M377.45 77.6996V61.0696C377.45 53.2896 374.78 46.7196 369.44 41.3696C364.09 36.0296 357.52 33.3496 349.74 33.3496C341.96 33.3496 335.53 36.0496 330.13 41.4596C324.73 46.8596 322.03 53.3996 322.03 61.0696V88.7796C322.03 94.9996 324.17 100.25 328.45 104.53C332.73 108.81 337.98 110.95 344.2 110.95H371.91C375.61 110.95 377.45 109.11 377.45 105.41C377.45 101.71 375.61 99.8696 371.91 99.8696H344.2C341.17 99.8696 338.57 98.7796 336.39 96.5896C334.2 94.4096 333.11 91.8096 333.11 88.7796V77.6996H377.45ZM333.11 61.0696C333.11 56.4796 334.73 52.5596 337.98 49.3096C341.23 46.0596 345.15 44.4396 349.74 44.4396C354.33 44.4396 358.25 46.0596 361.5 49.3096C364.74 52.5596 366.37 56.4796 366.37 61.0696V66.6096H333.11V61.0696Z" fill="#E6E6E6"/>
<path d="M399.63 5.62985C399.63 1.92985 401.48 0.0898438 405.17 0.0898438H460.6C464.3 0.0898438 466.14 1.93985 466.14 5.62985C466.14 9.31985 464.29 11.1698 460.6 11.1698H438.43V105.4C438.43 109.1 436.58 110.94 432.89 110.94C429.2 110.94 427.35 109.09 427.35 105.4V11.1698H405.18C401.48 11.1698 399.64 9.31985 399.64 5.62985H399.63ZM535.72 41.3598C525.55 30.6698 506.64 30.6298 496.42 41.4498C485.25 50.6198 488.87 70.6498 488.31 83.2298C488.97 119.83 543.08 119.82 543.74 83.2298C543.24 70.7498 546.75 50.3898 535.72 41.3598ZM532.66 83.2298C532.71 104.97 499.26 105.06 499.4 83.2298V61.0598C499.36 39.2898 532.69 39.2998 532.66 61.0598V83.2298ZM565.92 105.4V38.8799C565.92 35.1799 567.77 33.3398 571.46 33.3398C582.61 34.4398 606.8 29.5398 614.92 39.7598C626.46 48.2098 619.62 93.3198 621.35 105.39C622.12 112.82 609.49 112.82 610.26 105.39C609.06 99.2898 613.4 51.0898 607.07 47.6098C602.82 41.8998 582.97 45.2698 577 44.4198V105.39C577.77 112.82 565.15 112.82 565.91 105.39L565.92 105.4Z" fill="url(#paint0_linear_1_3302)"/>
<defs>
<linearGradient id="paint0_linear_1_3302" x1="420.26" y1="18.1498" x2="614.79" y2="125.52" gradientUnits="userSpaceOnUse">
<stop stop-color="#9BE931"/>
<stop offset="1" stop-color="#1E8C45"/>
</linearGradient>
</defs>
</svg>
