<svg width="41" height="41" viewBox="0 0 41 41" fill="none" xmlns="http://www.w3.org/2000/svg">
<path d="M12.0833 32.1667C9.88325 32.1667 8.10325 33.9667 8.10325 36.1667C8.10325 38.3667 9.88325 40.1667 12.0833 40.1667C14.2833 40.1667 16.0833 38.3667 16.0833 36.1667C16.0833 33.9667 14.2833 32.1667 12.0833 32.1667ZM32.0833 32.1667C29.8833 32.1667 28.1033 33.9667 28.1033 36.1667C28.1033 38.3667 29.8833 40.1667 32.0833 40.1667C34.2833 40.1667 36.0833 38.3667 36.0833 36.1667C36.0833 33.9667 34.2833 32.1667 32.0833 32.1667ZM29.1833 22.1667C30.6833 22.1667 32.0033 21.3467 32.6833 20.1067L39.8433 7.12666C40.0118 6.82351 40.0983 6.4816 40.0941 6.13477C40.09 5.78793 39.9953 5.4482 39.8195 5.14918C39.6438 4.85016 39.393 4.60222 39.0919 4.42989C38.7909 4.25757 38.4501 4.16683 38.1033 4.16666H8.50325L6.62325 0.166656H0.083252V4.16666H4.08325L11.2833 19.3467L8.58325 24.2267C7.12325 26.9067 9.04325 30.1667 12.0833 30.1667H36.0833V26.1667H12.0833L14.2833 22.1667H29.1833ZM10.4033 8.16666H34.7033L29.1833 18.1667H15.1433L10.4033 8.16666Z" fill="white"/>
</svg>
