<svg width="147" height="163" viewBox="0 0 147 163" fill="none" xmlns="http://www.w3.org/2000/svg">
<path d="M0.27002 128.21C0.27002 139.82 3.0099 148.11 8.6499 153.56C15.9399 160.59 27.27 162.06 40.75 162.06C45.42 162.06 50.35 161.88 55.45 161.7C61.16 161.5 67.0599 161.29 73.1699 161.29C77.9099 161.29 82.55 161.38 87.03 161.47C108.41 161.89 126.88 162.26 137.35 152C143.2 146.26 146.05 137.69 146.05 125.83C146.05 97.5201 128.46 59.9699 100.04 48.6799C99.71 48.5499 99.35 48.48 99 48.48H47.3201C46.9601 48.48 46.61 48.5499 46.28 48.6799C18.76 59.6099 0.27002 98.63 0.27002 128.22V128.21ZM47.8799 54.1201H98.46C121.64 63.6701 140.41 95.6901 140.41 125.82C140.41 136.09 138.12 143.33 133.4 147.96C124.63 156.56 107.26 156.22 87.1599 155.82C82.6399 155.73 77.9699 155.64 73.1799 155.64C66.9699 155.64 61.01 155.85 55.25 156.06C36.69 156.72 20.6701 157.3 12.5801 149.5C8.10008 145.18 5.91992 138.22 5.91992 128.22C5.91992 94.14 27.5199 62.5799 47.8799 54.1299V54.1201Z" fill="#E6E6E6"/>
<path d="M50.7302 43.3501H94.9902C95.7802 43.3501 96.5203 43.03 97.0603 42.46C105.29 33.66 110.22 15.7099 110.22 3.43994C110.22 1.87994 108.95 0.620117 107.4 0.620117H38.3503C36.7903 0.620117 35.5303 1.87994 35.5303 3.43994C35.5303 15.7099 40.4502 33.67 48.6902 42.46C49.2202 43.03 49.9702 43.3501 50.7502 43.3501H50.7302ZM104.48 6.26001C103.84 16.61 99.8702 30.39 93.7302 37.71H52.0002C45.8602 30.39 41.8903 16.62 41.2603 6.26001H104.48Z" fill="#E6E6E6"/>
<path d="M52.4103 128.14C56.6903 130.79 62.9603 131.87 66.4903 132.29V137.96C66.4903 139.52 67.7604 140.78 69.3204 140.78H77.9703C78.7203 140.78 79.4403 140.48 79.9703 139.95C80.5003 139.42 80.7904 138.7 80.7904 137.95L80.7604 131.39C87.5404 129.75 94.3203 123.96 95.1503 115.07C96.1903 103.92 88.7804 99.4001 87.2804 98.6001C86.3804 98.1301 85.0404 97.5899 83.3404 96.9199C80.3604 95.7399 76.2804 94.1 73.3204 92.22C72.1904 91.5 71.7803 90.43 71.9503 89.74C72.1703 88.87 73.3504 88.6601 74.0304 88.6201C79.1004 88.2601 86.9704 90.8499 87.0504 90.8799C87.8004 91.1299 88.6304 91.0499 89.3304 90.6599C90.0204 90.2699 90.5203 89.6001 90.7003 88.8201L92.7804 79.53C93.0404 78.37 92.5504 77.17 91.5504 76.53C88.8504 74.8 83.8303 73.94 80.6503 73.54V68.5C80.6503 66.94 79.3904 65.6699 77.8304 65.6699H69.1803C67.6203 65.6699 66.3605 66.93 66.3605 68.5V74.9399C56.2805 77.7999 51.3904 84.6399 52.5404 94.3799C53.8004 105.09 67.9804 109.66 70.8004 110.47C76.6904 112.15 76.4703 113.13 76.1603 114.48C75.8303 115.93 70.9203 116.89 66.1503 115.91C62.1103 115.08 58.5303 113.17 58.4903 113.15C57.7603 112.75 56.8805 112.7 56.1005 113.02C55.3205 113.33 54.7203 113.97 54.4603 114.77L51.2003 124.88C50.8003 126.11 51.3003 127.46 52.4003 128.15L52.4103 128.14ZM58.8705 119.52C60.5105 120.19 62.6804 120.95 65.0204 121.43C70.9204 122.65 80.2303 122.13 81.6803 115.72C83.3803 108.19 76.2105 106.14 72.3605 105.04C67.7505 103.72 58.8503 99.66 58.1503 93.72C57.2603 86.17 60.9604 81.7799 69.7704 79.9099C71.0704 79.6399 72.0004 78.4799 72.0004 77.1499V71.3201H75.0104V76.0801C75.0104 77.5501 76.1405 78.7799 77.6105 78.8999C80.2505 79.1099 84.2504 79.71 86.7704 80.53L85.8404 84.6399C82.7004 83.7999 77.6603 82.71 73.6503 82.99C70.0103 83.24 67.2603 85.3001 66.4803 88.3501C65.6603 91.5501 67.1904 95.02 70.2804 96.99C73.6804 99.17 78.0604 100.91 81.2504 102.18C82.6704 102.74 84.0002 103.28 84.6302 103.61C85.5702 104.11 90.2404 106.99 89.5304 114.56C88.8804 121.54 82.9403 125.77 77.6903 126.2C76.2203 126.32 75.0905 127.55 75.1005 129.03L75.1302 135.16H72.1503V129.73C72.1503 128.23 70.9703 126.99 69.4703 126.91C67.3003 126.8 61.5104 126.13 57.3304 124.35L58.8802 119.54L58.8705 119.52Z" fill="#E6E6E6"/>
</svg>
