<svg width="103" height="161" viewBox="0 0 103 161" fill="none" xmlns="http://www.w3.org/2000/svg">
<path d="M0.149902 15.79V144.88C0.149902 153.56 7.2199 160.63 15.8999 160.63H86.9299C95.6099 160.63 102.68 153.56 102.68 144.88V15.79C102.68 7.11004 95.6099 0.0400391 86.9299 0.0400391H15.8999C7.2099 0.0400391 0.149902 7.11004 0.149902 15.79ZM15.8999 6.33008H86.9299C92.1499 6.33008 96.3899 10.58 96.3899 15.79V144.88C96.3899 150.1 92.1399 154.34 86.9299 154.34H15.8999C10.6799 154.34 6.43994 150.1 6.43994 144.88V15.79C6.43994 10.57 10.6899 6.33008 15.8999 6.33008Z" fill="#E6E6E6"/>
<path d="M26.3801 125.44H76.4402C82.9102 125.44 88.1602 120.18 88.1602 113.72V25.3501C88.1602 18.8901 82.9102 13.6299 76.4402 13.6299H26.3801C19.9201 13.6299 14.6602 18.8901 14.6602 25.3501V113.72C14.6602 120.18 19.9201 125.44 26.3801 125.44ZM19.6902 25.3501C19.6902 21.6601 22.6901 18.6599 26.3801 18.6599H76.4402C80.1302 18.6599 83.1301 21.6601 83.1301 25.3501V113.72C83.1301 117.4 80.1302 120.41 76.4402 120.41H26.3801C22.6901 120.41 19.6902 117.41 19.6902 113.72V25.3501Z" fill="#E6E6E6"/>
<path d="M51.4102 129.44C45.4802 129.44 40.6602 134.26 40.6602 140.19C40.6602 146.12 45.4802 150.93 51.4102 150.93C57.3402 150.93 62.1501 146.11 62.1501 140.19C62.1501 134.27 57.3302 129.44 51.4102 129.44ZM51.4102 147.16C47.5602 147.16 44.4302 144.03 44.4302 140.19C44.4302 136.35 47.5602 133.22 51.4102 133.22C55.2602 133.22 58.3801 136.35 58.3801 140.19C58.3801 144.03 55.2502 147.16 51.4102 147.16Z" fill="#E6E6E6"/>
</svg>
