<svg width="27" height="45" viewBox="0 0 27 45" fill="none" xmlns="http://www.w3.org/2000/svg">
<path d="M21.4773 0H5.11364C3.75742 0 2.45674 0.538756 1.49775 1.49775C0.538757 2.45674 0 3.75742 0 5.11364V39.8864C0 41.2426 0.538757 42.5433 1.49775 43.5023C2.45674 44.4612 3.75742 45 5.11364 45H21.4773C22.8335 45 24.1342 44.4612 25.0932 43.5023C26.0522 42.5433 26.5909 41.2426 26.5909 39.8864V5.11364C26.5909 3.75742 26.0522 2.45674 25.0932 1.49775C24.1342 0.538756 22.8335 0 21.4773 0ZM13.2955 42.9545C11.5977 42.9545 10.2273 41.5841 10.2273 39.8864C10.2273 38.1886 11.5977 36.8182 13.2955 36.8182C14.9932 36.8182 16.3636 38.1886 16.3636 39.8864C16.3636 41.5841 14.9932 42.9545 13.2955 42.9545ZM22.5 34.7727H4.09091V6.13636H22.5V34.7727Z" fill="white"/>
</svg>
