<svg width="126" height="162" viewBox="0 0 126 162" fill="none" xmlns="http://www.w3.org/2000/svg">
<path d="M20.7998 161.27H105.75C116.72 161.27 125.65 152.34 125.65 141.37V86.9602C125.65 76.8802 118.1 68.5402 108.36 67.2502V45.7502C108.36 20.8902 88.1298 0.660156 63.2798 0.660156C38.4298 0.660156 18.1899 20.8902 18.1899 45.7502V67.2502C8.44994 68.5402 0.899902 76.8702 0.899902 86.9602V141.37C0.899902 152.34 9.81981 161.27 20.7998 161.27ZM8.33008 86.9702C8.33008 80.1002 13.9198 74.5002 20.7998 74.5002H105.75C112.62 74.5002 118.22 80.0902 118.22 86.9702V141.38C118.22 148.25 112.62 153.85 105.75 153.85H20.7998C13.9298 153.85 8.33008 148.26 8.33008 141.38V86.9702ZM63.27 8.11035C84.03 8.11035 100.92 25.0003 100.92 45.7603V67.0703H94.9702V45.7603C94.9702 28.2703 80.7498 14.0503 63.2598 14.0503C45.7698 14.0503 31.54 28.2703 31.54 45.7603V67.0703H25.6001V45.7603C25.6001 25.0003 42.4898 8.11035 63.2598 8.11035H63.27ZM87.54 67.0703H38.9902V45.7603C38.9902 32.3703 49.88 21.4802 63.27 21.4802C76.66 21.4802 87.54 32.3703 87.54 45.7603V67.0703Z" fill="white"/>
<path d="M55.8599 134.34H70.7002C72.3402 134.34 73.6699 133.01 73.6699 131.37V96.9802C73.6699 95.3402 72.3402 94.0103 70.7002 94.0103H55.8599C54.2199 94.0103 52.8901 95.3402 52.8901 96.9802V131.37C52.8901 133.01 54.2199 134.34 55.8599 134.34ZM58.8301 99.9502H67.7202V128.39H58.8301V99.9502Z" fill="white"/>
</svg>
