<svg width="208" height="139" viewBox="0 0 208 139" fill="none" xmlns="http://www.w3.org/2000/svg">
<path d="M1.29004 121.009C1.97004 121.689 2.89009 122.079 3.84009 122.079H61.49C60.8 125.899 60.35 129.999 60.28 134.469C60.26 135.429 60.6401 136.359 61.3101 137.039C61.9801 137.729 62.9101 138.11 63.8701 138.11L143.3 138.089C145.23 138.089 146.82 136.56 146.88 134.62C146.88 134.12 147.03 129.039 145.96 122.069H203.96C205.9 122.059 207.48 120.519 207.54 118.589C207.58 117.359 208.32 88.2695 190.08 71.5595C188.8 70.3795 186.85 70.2995 185.47 71.3595C185.26 71.5195 164.05 87.4593 144.3 71.3793C142.95 70.2693 140.99 70.2994 139.69 71.4494C139.26 71.8194 133.47 76.9794 128.42 86.9494C127.26 86.4394 125.88 86.5793 124.82 87.3793C123.95 88.0393 103.29 103.409 83.6399 87.4093C82.6799 86.6293 81.4201 86.4294 80.3 86.7794C77.76 81.3394 74.2599 76.0095 69.4099 71.5595C68.1199 70.3795 66.18 70.2995 64.8 71.3595C64.59 71.5195 43.3799 87.4593 23.6299 71.3793C22.2799 70.2693 20.33 70.2994 19.01 71.4494C18.26 72.0994 0.71002 87.7093 0.27002 118.439C0.27002 119.399 0.630049 120.329 1.30005 121.009H1.29004ZM142.42 78.9293C161.18 92.0193 180.34 82.9294 187.21 78.7894C197.88 90.2394 199.93 107.559 200.3 114.879H144.53C142.71 107.559 139.5 99.3295 133.86 92.3395C136.84 85.8295 140.29 81.3293 142.41 78.9293H142.42ZM81.75 94.9594C100.52 108.049 119.67 98.9595 126.54 94.8195C137.21 106.279 139.27 123.589 139.63 130.919H67.6001C68.8701 111.629 77.72 99.5294 81.74 94.9594H81.75ZM21.73 78.9293C40.5 92.0193 59.65 82.9294 66.53 78.7894C70.21 82.7394 72.85 87.3995 74.75 92.0895C71.19 96.5095 66.2299 104.089 63.1299 114.889H7.59009C8.85009 95.5993 17.7 83.4993 21.74 78.9293H21.73Z" fill="#E6E6E6"/>
<path d="M43.5703 68.4897C52.6403 68.4897 61.1603 64.9498 67.5703 58.5298C68.4603 57.6398 69.2903 56.7097 70.0603 55.7397C72.5603 72.0098 86.6303 84.5198 103.58 84.5198H103.59C112.65 84.5198 121.17 80.9798 127.59 74.5598C132.95 69.1998 136.26 62.3798 137.22 55.0098C143.43 63.1798 153.23 68.4897 164.26 68.4897C173.32 68.4897 181.84 64.9498 188.26 58.5298C194.68 52.1098 198.22 43.5798 198.21 34.5198C198.21 15.7998 182.95 0.559814 164.25 0.559814C155.19 0.559814 146.66 4.09978 140.24 10.5198C134.88 15.8798 131.58 22.6998 130.61 30.0698C124.4 21.8998 114.61 16.5798 103.58 16.5798C94.5203 16.5798 85.9903 20.1198 79.5803 26.5398C78.6903 27.4298 77.8703 28.3698 77.0903 29.3298C74.5803 13.0598 60.5203 0.549805 43.5703 0.549805C34.5103 0.549805 25.9803 4.08977 19.5603 10.5098C13.1403 16.9298 9.61035 25.4598 9.61035 34.5198C9.61035 53.2398 24.8603 68.4697 43.5803 68.4697L43.5703 68.4897ZM145.32 15.5999C150.38 10.5299 157.12 7.73975 164.27 7.73975C179.03 7.73975 191.05 19.7498 191.06 34.5198C191.06 41.6598 188.27 48.3897 183.21 53.4597C178.15 58.5297 171.42 61.3198 164.28 61.3198C149.51 61.3198 137.49 49.3098 137.48 34.5398C137.48 27.3898 140.27 20.6699 145.34 15.5999H145.32ZM84.6501 31.6296C89.7201 26.5596 96.4403 23.7698 103.59 23.7698C118.36 23.7698 130.38 35.7798 130.39 50.5498C130.39 57.6898 127.6 64.4197 122.53 69.4897C117.47 74.5597 110.75 77.3499 103.6 77.3499H103.59C88.8303 77.3499 76.8103 65.3398 76.8003 50.5698C76.8003 43.4298 79.5901 36.6996 84.6501 31.6296ZM24.6301 15.5999C29.6901 10.5299 36.4203 7.73975 43.5703 7.73975C58.3403 7.73975 70.3504 19.7498 70.3604 34.5198C70.3604 41.6598 67.5803 48.3897 62.5103 53.4597C57.4403 58.5297 50.7203 61.3198 43.5703 61.3198C28.8003 61.3198 16.7703 49.3098 16.7703 34.5398C16.7703 27.3898 19.5601 20.6699 24.6301 15.5999Z" fill="#E6E6E6"/>
</svg>
