<svg width="133" height="163" viewBox="0 0 133 163" fill="none" xmlns="http://www.w3.org/2000/svg">
<path d="M97.2603 161.24C98.0103 161.24 98.7503 160.96 99.3203 160.42L131.5 130C132.11 129.43 132.41 128.64 132.42 127.83C132.74 127.3 132.93 126.68 132.93 126.01V13.3298C132.93 6.30983 127.23 0.589844 120.22 0.589844H13.0603C6.0603 0.589844 0.360352 6.29983 0.360352 13.3298V149.33C0.360352 156.35 6.0603 162.07 13.0603 162.07H94.9902C95.8502 162.07 96.6302 161.75 97.2402 161.24H97.2603ZM100.28 151.26V139.57C100.28 134.75 104.19 130.82 109 130.82H121.9L100.28 151.26ZM91.4902 155.01H13.0903C9.97033 155.01 7.44019 152.47 7.44019 149.34V13.3398C7.44019 10.2098 9.98033 7.66968 13.0903 7.66968H120.25C123.37 7.66968 125.9 10.2098 125.9 13.3398V122.48H109.43C99.5402 122.48 91.4902 130.55 91.4902 140.47V155.01Z" fill="#E6E6E6"/>
<path d="M27.8303 47.5896H105.5C107.45 47.5896 109.03 46.0096 109.03 44.0596V37.7195C109.03 35.7695 107.45 34.1895 105.5 34.1895H27.8303C25.8803 34.1895 24.3003 35.7695 24.3003 37.7195V44.0596C24.3003 46.0096 25.8803 47.5896 27.8303 47.5896ZM28.5403 38.4294H104.8V43.3496H28.5403V38.4294Z" fill="#E6E6E6"/>
<path d="M27.8303 69.7498H105.5C107.45 69.7498 109.03 68.1697 109.03 66.2197V59.8896C109.03 57.9396 107.45 56.3599 105.5 56.3599H27.8303C25.8803 56.3599 24.3003 57.9396 24.3003 59.8896V66.2197C24.3003 68.1697 25.8803 69.7498 27.8303 69.7498ZM28.5403 60.5898H104.8V65.5098H28.5403V60.5898Z" fill="#E6E6E6"/>
<path d="M109.02 88.3794V82.0496C109.02 80.0996 107.44 78.5195 105.49 78.5195H27.8201C25.8701 78.5195 24.29 80.0996 24.29 82.0496V88.3794C24.29 90.3294 25.8701 91.9094 27.8201 91.9094H105.49C107.44 91.9094 109.02 90.3294 109.02 88.3794ZM104.79 87.6694H28.53V82.7495H104.79V87.6694Z" fill="#E6E6E6"/>
</svg>
