<svg width="34" height="45" viewBox="0 0 34 45" fill="none" xmlns="http://www.w3.org/2000/svg">
<path d="M12.6562 5.80041e-07C11.7835 -0.000456975 10.932 0.269797 10.2192 0.773517C9.50648 1.27724 8.96749 1.98962 8.67656 2.8125H4.21875C3.09987 2.8125 2.02681 3.25697 1.23564 4.04814C0.444474 4.83931 0 5.91237 0 7.03125V40.7812C0 41.9001 0.444474 42.9732 1.23564 43.7644C2.02681 44.5555 3.09987 45 4.21875 45H29.5312C30.6501 45 31.7232 44.5555 32.5144 43.7644C33.3055 42.9732 33.75 41.9001 33.75 40.7812V7.03125C33.75 5.91237 33.3055 4.83931 32.5144 4.04814C31.7232 3.25697 30.6501 2.8125 29.5312 2.8125H25.0734C24.7825 1.98962 24.2435 1.27724 23.5308 0.773517C22.818 0.269797 21.9665 -0.000456975 21.0938 5.80041e-07H12.6562ZM11.25 4.21875C11.25 3.84579 11.3982 3.48811 11.6619 3.22438C11.9256 2.96066 12.2833 2.8125 12.6562 2.8125H21.0938C21.4667 2.8125 21.8244 2.96066 22.0881 3.22438C22.3518 3.48811 22.5 3.84579 22.5 4.21875C22.5 4.59171 22.3518 4.9494 22.0881 5.21312C21.8244 5.47684 21.4667 5.625 21.0938 5.625H12.6562C12.2833 5.625 11.9256 5.47684 11.6619 5.21312C11.3982 4.9494 11.25 4.59171 11.25 4.21875ZM15.0581 16.4644L10.1363 21.3863C9.88005 21.6421 9.53501 21.7893 9.17299 21.7972C8.81097 21.8051 8.45988 21.673 8.19281 21.4284L6.08344 19.5019C5.9401 19.3794 5.82287 19.2293 5.73871 19.0605C5.65455 18.8918 5.60519 18.7079 5.59355 18.5197C5.58192 18.3314 5.60826 18.1428 5.671 17.965C5.73373 17.7872 5.83159 17.6238 5.95875 17.4846C6.08591 17.3453 6.23977 17.2331 6.41119 17.1545C6.5826 17.076 6.76806 17.0327 6.95655 17.0272C7.14503 17.0218 7.33268 17.0543 7.50834 17.1229C7.684 17.1914 7.84408 17.2946 7.97906 17.4263L9.09563 18.4444L13.0669 14.4731C13.1976 14.3424 13.3528 14.2387 13.5237 14.1679C13.6945 14.0971 13.8776 14.0607 14.0625 14.0607C14.2474 14.0607 14.4305 14.0971 14.6013 14.1679C14.7722 14.2387 14.9274 14.3424 15.0581 14.4731C15.1889 14.6039 15.2926 14.7591 15.3633 14.9299C15.4341 15.1008 15.4705 15.2838 15.4705 15.4688C15.4705 15.6537 15.4341 15.8367 15.3633 16.0076C15.2926 16.1784 15.1889 16.3336 15.0581 16.4644ZM15.0581 28.5356C15.1891 28.6663 15.293 28.8214 15.3639 28.9923C15.4348 29.1631 15.4713 29.3463 15.4713 29.5312C15.4713 29.7162 15.4348 29.8994 15.3639 30.0702C15.293 30.2411 15.1891 30.3962 15.0581 30.5269L10.1363 35.4488C9.88005 35.7046 9.53501 35.8518 9.17299 35.8597C8.81097 35.8676 8.45988 35.7355 8.19281 35.4909L6.08344 33.5644C5.82219 33.3095 5.67024 32.9631 5.65971 32.5983C5.64918 32.2335 5.78089 31.8789 6.027 31.6094C6.27312 31.3399 6.61436 31.1767 6.97862 31.1542C7.34289 31.1316 7.70163 31.2516 7.97906 31.4888L9.09563 32.5097L13.0669 28.5356C13.1975 28.4047 13.3527 28.3008 13.5235 28.2299C13.6944 28.159 13.8775 28.1225 14.0625 28.1225C14.2475 28.1225 14.4306 28.159 14.6015 28.2299C14.7723 28.3008 14.9275 28.4047 15.0581 28.5356ZM19.6875 30.2344H26.7188C27.0917 30.2344 27.4494 30.3825 27.7131 30.6463C27.9768 30.91 28.125 31.2677 28.125 31.6406C28.125 32.0136 27.9768 32.3713 27.7131 32.635C27.4494 32.8987 27.0917 33.0469 26.7188 33.0469H19.6875C19.3145 33.0469 18.9569 32.8987 18.6931 32.635C18.4294 32.3713 18.2812 32.0136 18.2812 31.6406C18.2812 31.2677 18.4294 30.91 18.6931 30.6463C18.9569 30.3825 19.3145 30.2344 19.6875 30.2344ZM18.2812 17.5781C18.2812 17.2052 18.4294 16.8475 18.6931 16.5838C18.9569 16.32 19.3145 16.1719 19.6875 16.1719H26.7188C27.0917 16.1719 27.4494 16.32 27.7131 16.5838C27.9768 16.8475 28.125 17.2052 28.125 17.5781C28.125 17.9511 27.9768 18.3088 27.7131 18.5725C27.4494 18.8362 27.0917 18.9844 26.7188 18.9844H19.6875C19.3145 18.9844 18.9569 18.8362 18.6931 18.5725C18.4294 18.3088 18.2812 17.9511 18.2812 17.5781Z" fill="white"/>
</svg>
